<svg width="874" height="266" viewBox="0 0 874 266" fill="none" xmlns="http://www.w3.org/2000/svg">
<g clip-path="url(#clip0_117_50)">
<path d="M811.497 233.284C818.936 233.179 824.347 238.159 824.575 245.405C824.852 254.553 814.313 265.415 804.872 265.716C797.279 265.959 791.363 260.378 791.419 253.034C791.493 243.488 801.723 233.422 811.497 233.284Z" fill="#1D1D1B"/>
<path d="M774.125 244.455C774.231 254.829 765.393 265.431 756.522 265.578C754.721 265.596 752.934 265.256 751.266 264.577C749.598 263.899 748.082 262.895 746.807 261.625C745.532 260.355 744.523 258.845 743.84 257.181C743.156 255.518 742.811 253.735 742.825 251.937C742.768 242.261 751.932 233.333 761.771 233.471C768.892 233.56 774.068 238.159 774.125 244.455Z" fill="#1D1D1B"/>
<path d="M845.857 266C838.045 266.106 832.567 261.312 832.47 254.293C832.347 245.446 840.608 237.826 850.301 237.858C858.081 237.858 863.396 242.733 863.428 249.841C863.477 257.9 854.793 265.87 845.857 266Z" fill="#1D1D1B"/>
<path d="M143.374 55.244C134.642 55.244 128.318 55.5121 119.578 55.1059C116.187 54.8867 112.905 53.8316 110.023 52.035C108.599 51.1495 107.736 47.8429 108.168 45.9906C108.509 44.4958 111.106 42.6436 112.839 42.4892C127.846 41.2218 140.436 39.8976 155.484 39.4101C165.332 39.0852 168.571 44.9914 163.086 53.0343C151.814 69.5669 140.046 85.7664 128.481 102.096C127.667 103.282 126.788 104.46 125.331 106.491C136.807 107.043 143.366 107.498 153.987 108.116C157.212 108.171 160.422 108.58 163.558 109.334C168.546 110.748 171.989 114.022 171.525 119.611C171.053 125.396 166.903 127.736 161.686 127.833C154.793 127.947 151.968 127.443 145.075 127.264C132.151 126.923 119.211 126.842 106.296 126.16C102.939 125.968 99.7294 124.716 97.1319 122.585C93.5998 119.416 94.1858 115.273 97.433 111.715C103.765 104.85 110.511 98.3425 116.371 91.1039C125.445 79.9089 133.926 68.2263 142.626 56.7388C142.947 56.2796 143.199 55.776 143.374 55.244Z" fill="#1D1D1B"/>
<path d="M29.6156 40.5557H67.9231L92.9894 127.094H63.3819L60.1265 110.488H37.6482L33.9941 127.094H5.64807L29.6156 40.5557ZM57.0828 94.9873L48.8955 57.1289L40.3258 94.9873H57.0828Z" fill="#1D1D1B"/>
<path d="M189.177 59.6798H171.159V40.5557H236.551V59.6798H218.541V127.11H189.177V59.6798Z" fill="#1D1D1B"/>
<path d="M637.579 19.4249C637.905 10.4477 645.001 5.2239 651.618 1.5518C656.306 -1.03168 660.863 -0.316765 663.826 3.06287C665.298 4.68843 666.102 6.80884 666.076 9.00026C666.05 11.1917 665.197 13.2927 663.687 14.8835C659.305 19.5573 654.363 23.6746 648.973 27.1428C646.865 28.4833 642.21 28.2395 640.249 26.7366C638.287 25.2336 637.514 21.334 637.579 19.4249Z" fill="#1D1D1B"/>
<path d="M825.194 93.4518C825.194 96.807 825.34 100.187 825.3 103.558C825.251 107.328 825.454 114.436 824.934 118.182C824.185 123.527 820.376 126.866 816.022 126.647C811.521 126.419 806.467 122.975 806.15 117.54C805.466 105.687 804.677 90.5271 804.62 78.6578C804.555 64.8468 804.197 60.1998 804.62 46.3481C804.701 43.9109 804.791 40.8968 806.142 39.1014C807.77 36.9891 813.41 36.4448 815.526 36.7454C817.641 37.046 820.36 38.5246 820.669 40.8725C821.556 47.6236 821.483 45.2676 821.727 52.1C821.784 53.8467 821.979 55.5933 822.199 58.3962C824.16 56.5845 825.414 55.4715 826.618 54.3341C834.879 46.275 844.71 45.0807 855.2 48.436C864.348 51.3607 868.734 59.9966 864.665 68.6651C861.41 75.6681 855.493 81.7368 849.861 87.3505C855.037 92.9074 862.883 100.902 868.913 107.498C870.293 108.921 871.491 110.509 872.478 112.227C874.732 116.435 874.521 120.659 871.298 124.283C867.904 128.101 863.477 128.759 858.976 126.679C856.556 125.482 854.37 123.861 852.523 121.894C843.505 112.625 834.61 103.266 825.194 93.4518ZM846.158 65.261C844.059 59.7122 837.06 65.9435 833.682 72.8002C840.006 73.637 848.046 70.2411 846.158 65.261Z" fill="#1D1D1B"/>
<path d="M412.267 103.176C418.192 104.655 424.125 106.117 430.05 107.612C434.819 108.823 440.093 109.091 443.698 112.608C444.488 113.376 445.102 114.305 445.499 115.332C445.896 116.358 446.067 117.458 445.999 118.557C445.931 119.655 445.626 120.726 445.105 121.696C444.584 122.666 443.86 123.512 442.982 124.177C431.336 133.634 403.38 128.012 394.566 115.281C388.495 106.507 388.756 96.2952 395.885 87.8949C399.246 83.9384 403.494 80.7294 408.328 76.2692C407.124 75.5055 405.618 74.9206 404.617 73.832C395.746 64.4405 396.585 51.7831 407.531 45.0157C420.333 37.111 434.55 34.9093 449.395 38.5651C450.209 38.7764 451.421 38.947 451.836 39.5482C453.545 42.2617 456.296 45.235 456.109 47.8997C455.987 49.6139 451.56 51.8806 448.784 52.4087C440.459 54.0335 431.954 54.6347 423.555 56.0889C421.594 56.4301 419.82 57.8274 416.906 59.6066C416.733 59.7115 416.591 59.862 416.498 60.0416C416.404 60.2212 416.361 60.423 416.375 60.6251C416.388 60.8272 416.457 61.0217 416.574 61.1874C416.69 61.3531 416.851 61.4836 417.036 61.5646C420.04 62.8644 422.009 63.8962 424.101 64.2699C428.436 65.0226 432.821 65.4517 437.22 65.5535C443.014 65.7079 448.109 67.0727 449.077 73.5476C450.005 79.7382 445.415 81.9805 440.434 84.239C432.874 87.6755 425.647 91.8675 418.412 95.9702C415.97 97.3594 414.269 100.032 411.974 101.714L412.267 103.176Z" fill="#1D1D1B"/>
<path d="M319.4 126.809C314.946 126.636 308.855 126.26 301.129 125.68V39.012H344.466C350.094 38.9317 355.694 39.8052 361.028 41.5954C365.944 43.3178 369.788 45.7713 372.56 48.9559C375.28 51.9974 376.764 55.944 376.719 60.021C376.719 65.2204 375.585 69.3068 373.317 72.2803C371.049 75.2537 367.604 77.3308 362.981 78.5115C374.738 80.353 380.62 87.2693 380.625 99.2605C380.625 107.563 376.827 114.274 369.232 119.392C361.636 124.51 349.854 127.067 333.886 127.061C328.678 127.061 323.849 126.977 319.4 126.809ZM349.325 104.736C350.512 103.949 351.476 102.87 352.126 101.604C352.776 100.338 353.089 98.9272 353.036 97.5057C353.036 94.1531 351.902 91.5751 349.634 89.7715C347.366 87.968 344.133 87.0662 339.933 87.0662H329.101V106.938C332.899 107.192 336.089 107.317 338.672 107.311C343.294 107.311 346.854 106.453 349.349 104.736H349.325ZM339.176 73.2308C342.084 73.3372 344.946 72.4803 347.315 70.7936C348.327 70.1182 349.155 69.2014 349.724 68.1262C350.292 67.0509 350.583 65.8512 350.57 64.6355C350.57 58.6779 346.873 55.699 339.477 55.699H329.272V73.182L339.176 73.2308Z" fill="#1D1D1B"/>
<path d="M464.312 121.025L470.612 101.527C479.265 104.631 486.994 106.182 493.798 106.182C497.493 106.182 500.206 105.741 501.936 104.858C502.711 104.529 503.371 103.977 503.83 103.272C504.29 102.568 504.528 101.742 504.516 100.902C504.515 100.319 504.391 99.7431 504.153 99.2113C503.915 98.6794 503.567 98.2036 503.133 97.8144C502.205 96.937 500.355 95.954 497.582 94.8654C494.81 93.7767 490.654 92.4227 485.114 90.8033C478.31 88.7885 473.018 85.4982 469.236 80.9325C465.502 76.5234 463.48 70.921 463.539 65.1474C463.539 55.94 466.586 48.9587 472.679 44.2034C478.772 39.448 486.983 37.0785 497.314 37.0947C502.649 37.0923 507.97 37.6615 513.184 38.7927C518.007 39.7914 522.665 41.4652 527.019 43.7646L520.256 62.767C516.236 61.3657 512.135 60.2099 507.975 59.3061C504.637 58.6072 501.237 58.2479 497.826 58.2337C492.287 58.2337 489.517 59.7448 489.517 62.767C489.517 64.2699 490.412 65.5535 492.219 66.6015C494.026 67.6495 497.745 68.9738 503.377 70.5661C512.188 72.9113 518.864 76.494 523.405 81.3143C527.872 85.9566 530.318 92.1745 530.209 98.6106C530.209 107.921 527.187 115.07 521.143 120.058C515.099 125.046 506.147 127.541 494.286 127.541C482.458 127.557 472.467 125.385 464.312 121.025Z" fill="#1D1D1B"/>
<path d="M540.293 107.311L569.9 57.3807H541.416V39.012H598.116V57.3807L569.135 107.19H599.377V125.55H540.285L540.293 107.311Z" fill="#1D1D1B"/>
<path d="M614.002 39.012H674.886V58.1362H644.652V73.8564H672.241V89.7066H644.652V106.434H674.886V125.55H614.035L614.002 39.012Z" fill="#1D1D1B"/>
<path d="M690.861 39.012H718.076V106.442H748.188V125.558H690.861V39.012Z" fill="#1D1D1B"/>
<path d="M760.534 39.012H789.637V125.55H760.534V39.012Z" fill="#1D1D1B"/>
<path d="M51.8417 242.001C42.5313 242.513 33.9942 243.301 25.4652 243.269C22.2098 243.269 20.5821 243.87 19.4264 246.86C17.7521 250.784 15.8778 254.621 13.8109 258.355C11.7356 262.182 8.75695 265.001 4.04481 263.352C-0.667329 261.702 -0.317361 257.315 0.398819 253.603C1.45681 248.184 4.46808 239.515 6.46199 234.397C13.8354 215.712 21.5425 197.237 29.2495 178.706C30.0285 176.758 31.1288 174.954 32.5049 173.369C38.5192 166.699 47.7725 168.494 50.5477 176.87C58.4854 200.788 66.3525 224.721 74.1491 248.671C74.8934 250.643 75.4122 252.692 75.6954 254.781C76.1267 259.525 74.8815 263.66 69.8764 265.399C65.1805 267.024 61.3311 265.058 59.0849 261.125C56.8387 257.193 55.4552 252.741 53.8112 248.476C53.0625 246.372 52.509 244.138 51.8417 242.001ZM45.1113 219.79L39.626 203.867L32.9118 220.456L45.1113 219.79Z" fill="#1D1D1B"/>
<path d="M86.8124 242.611L116.42 192.672H87.9355V174.311H144.636V192.672L115.655 242.481H145.889V260.849H86.7961L86.8124 242.611Z" fill="#1D1D1B"/>
<path d="M335.799 178.292C336.312 177.869 336.491 177.715 336.67 177.577C347.494 170.095 363.079 171.419 376.019 175.237C385.191 177.951 389.854 188.48 389.325 198.692C388.829 208.246 383.465 214.753 375.14 219.717C378.957 230.384 380.967 236.087 384.979 246.478C388.121 254.602 386.9 260.532 380.983 263.083C375.286 265.521 368.678 262.588 365.87 254.959C362.412 245.543 361.476 240.588 358.863 230.887C357.634 226.322 355.86 223.763 350.489 224.526C346.257 225.128 341.878 224.648 336.841 224.648C337.353 234.032 338.013 243.074 338.281 252.124C338.436 257.242 337.134 261.418 332.023 261.58C328.385 261.694 323.274 262.068 319.717 259.143C318.44 258.103 317.74 253.456 317.666 251.498C317.137 238.021 316.853 225.582 317.105 212.121C317.423 203.325 318.315 194.56 319.774 185.88C321.41 175.554 326.261 173.255 335.799 178.292ZM337.964 185.043C337.964 191.412 337.687 199.886 338.232 205.077C338.411 206.767 340.894 206.401 342.301 206.353C349.781 206.076 357.398 205.735 364.617 203.989C368.263 203.469 370.843 197.546 370.867 194.556C370.916 190.348 366.936 187.245 364.047 186.481C355.657 184.369 347.103 184.929 337.956 185.043H337.964Z" fill="#1D1D1B"/>
<path d="M575.499 199.309C581.554 190.129 586.503 182.508 591.589 174.985C593.16 172.662 594.706 169.404 596.952 168.665C600.436 167.519 605.465 166.723 608.061 168.446C610.657 170.168 611.496 175.083 612.13 178.763C612.423 180.551 610.682 182.882 609.445 184.686C592.606 209.147 581.774 226.614 572.057 254.724C571.678 255.878 571.233 257.009 570.722 258.111C568.118 263.465 563.243 265.903 558.279 264.075C552.818 262.068 550.596 257.421 552.061 252.376C555.251 241.327 556.171 238.987 560.37 228.288C561.77 224.746 562.682 221.992 561.453 218.125C558.254 208.116 555.642 197.92 552.915 187.773C552.392 185.814 552.186 183.785 552.305 181.761C552.59 177.374 554.389 173.726 559.182 172.987C563.976 172.248 566.865 174.985 568.419 179.21C570.625 185.246 572.692 191.339 575.499 199.309Z" fill="#1D1D1B"/>
<path d="M233.841 257.616C226.982 253.91 221.305 248.352 217.458 241.579C213.476 234.454 211.455 226.404 211.599 218.246C211.599 209.44 213.552 201.587 217.458 194.686C221.281 187.895 226.964 182.332 233.841 178.649C240.856 174.831 248.9 172.935 257.971 172.963C267.043 172.99 275.086 174.885 282.102 178.649C288.962 182.322 294.64 187.86 298.476 194.622C302.383 201.457 304.336 209.31 304.336 218.181C304.48 226.339 302.458 234.389 298.476 241.514C294.618 248.298 288.92 253.857 282.037 257.551C274.983 261.413 266.962 263.341 257.971 263.335C248.9 263.4 240.856 261.494 233.841 257.616ZM271.009 234.348C274.411 230.238 276.112 224.821 276.112 218.1C276.185 214.016 275.392 209.963 273.784 206.207C272.397 202.943 270.146 200.118 267.274 198.034C264.52 196.069 261.21 195.033 257.825 195.076C254.483 195.047 251.218 196.083 248.506 198.034C245.648 200.113 243.423 202.942 242.077 206.207C240.508 209.973 239.735 214.022 239.806 218.1C239.806 224.805 241.488 230.221 244.852 234.348C246.404 236.324 248.397 237.91 250.672 238.979C252.947 240.048 255.441 240.571 257.955 240.507C260.46 240.559 262.943 240.03 265.208 238.962C267.474 237.893 269.459 236.314 271.009 234.348Z" fill="#1D1D1B"/>
<path d="M421.415 257.429C414.629 253.52 409.01 247.875 405.138 241.075C401.133 234.093 399.068 226.17 399.156 218.125C399.036 210.037 401.034 202.059 404.951 194.979C408.671 188.248 414.161 182.658 420.829 178.812C427.724 174.865 435.556 172.845 443.503 172.963C448.004 172.955 452.49 173.501 456.858 174.587C460.827 175.51 464.616 177.08 468.072 179.234L464.671 198.732C458.626 196.474 453.168 195.342 448.296 195.336C441.574 195.336 436.419 197.286 432.833 201.186C429.247 205.085 427.443 210.683 427.421 217.978C427.421 225.101 429.32 230.655 433.118 234.641C436.916 238.627 442.23 240.62 449.061 240.62C451.523 240.636 453.979 240.383 456.386 239.865C459.227 239.17 462.006 238.244 464.695 237.094L468.227 256.966C460.976 261.231 452.7 263.449 444.284 263.384C436.263 263.488 428.363 261.431 421.415 257.429Z" fill="#1D1D1B"/>
<path d="M477.798 243.122L507.413 193.192H478.929V174.88H535.629V193.24L506.649 243.049H536.883V261.41H477.79L477.798 243.122Z" fill="#1D1D1B"/>
<path d="M620.741 174.88H646.068L680.591 221.545V174.88H703.15V261.41H677.921L643.146 216.362V261.385H620.716L620.741 174.88Z" fill="#1D1D1B"/>
</g>
<defs>
<clipPath id="clip0_117_50">
<rect width="874" height="266" fill="white"/>
</clipPath>
</defs>
</svg>
