<?xml version="1.0" encoding="UTF-8" standalone="no"?>
<!DOCTYPE svg PUBLIC "-//W3C//DTD SVG 1.1//EN" "http://www.w3.org/Graphics/SVG/1.1/DTD/svg11.dtd">
<!-- Created with Vectornator (http://vectornator.io/) -->
<svg height="100%" stroke-miterlimit="10" style="fill-rule:nonzero;clip-rule:evenodd;stroke-linecap:round;stroke-linejoin:round;" version="1.1" viewBox="0 0 704.55 294.846" width="100%" xml:space="preserve" xmlns="http://www.w3.org/2000/svg" xmlns:vectornator="http://vectornator.io" xmlns:xlink="http://www.w3.org/1999/xlink">
<defs/>
<g id="Untitled" vectornator:layerName="Untitled">
<path d="M147.067 122.618C149.092 120.169 150.104 116.943 150.104 112.943C150.104 110.293 149.641 107.93 148.717 105.855C147.792 103.781 146.505 102.156 144.854 100.98C143.205 99.8059 141.33 99.2179 139.229 99.2179C137.178 99.2179 135.33 99.8059 133.679 100.98C132.03 102.156 130.755 103.781 129.854 105.855C128.955 107.93 128.505 110.293 128.505 112.943C128.505 116.943 129.505 120.169 131.504 122.618C133.504 125.068 136.104 126.293 139.304 126.293C142.455 126.293 145.042 125.068 147.067 122.618M124.942 136.493C120.766 134.193 117.517 131.006 115.192 126.93C112.867 122.855 111.705 118.219 111.705 113.017C111.705 107.767 112.867 103.094 115.192 98.9929C117.517 94.8929 120.766 91.7059 124.942 89.4299C129.116 87.1559 133.905 86.0169 139.304 86.0169C144.705 86.0169 149.492 87.1559 153.667 89.4299C157.841 91.7059 161.092 94.8809 163.417 98.9549C165.742 103.031 166.905 107.719 166.905 113.017C166.905 118.219 165.742 122.855 163.417 126.93C161.092 131.006 157.83 134.193 153.629 136.493C149.429 138.792 144.654 139.943 139.304 139.943C133.905 139.943 129.116 138.792 124.942 136.493" fill="#fdc623" fill-rule="nonzero" opacity="1" stroke="none" vectornator:layerName="path"/>
<path d="M232.017 136.381C227.941 134.006 224.716 130.756 222.342 126.631C219.966 122.506 218.78 117.944 218.78 112.944C218.78 107.843 219.929 103.243 222.23 99.1426C224.529 95.0436 227.679 91.8296 231.679 89.5056C235.679 87.1806 240.179 86.0176 245.179 86.0176C247.879 86.0176 250.529 86.3436 253.129 86.9926C255.729 87.6436 257.954 88.5676 259.804 89.7676L257.78 101.393C254.179 100.043 250.929 99.3676 248.03 99.3676C244.029 99.3676 240.954 100.53 238.804 102.856C236.654 105.181 235.58 108.518 235.58 112.868C235.58 117.118 236.716 120.432 238.992 122.806C241.267 125.181 244.429 126.368 248.48 126.368C250.029 126.368 251.48 126.218 252.829 125.918C254.179 125.618 255.829 125.068 257.78 124.268L259.879 136.118C255.53 138.668 250.779 139.944 245.629 139.944C240.629 139.944 236.091 138.755 232.017 136.381" fill="#fdc623" fill-rule="nonzero" opacity="1" stroke="none" vectornator:layerName="path"/>
<path d="M265.578 127.868L283.203 98.0929L266.253 98.0929L266.253 87.1419L300.003 87.1419L300.003 98.0929L282.753 127.793L300.753 127.793L300.753 138.743L265.578 138.743L265.578 127.868Z" fill="#fdc623" fill-rule="nonzero" opacity="1" stroke="none" vectornator:layerName="path"/>
<path d="M319.203 124.418L304.353 87.1427L320.028 87.1427L327.303 110.318L334.428 87.1427L350.928 87.1427L335.328 124.418L335.328 138.743L319.203 138.743L319.203 124.418Z" fill="#fdc623" fill-rule="nonzero" opacity="1" stroke="none" vectornator:layerName="path"/>
<path d="M185.193 93.6505C185.193 97.4015 185.032 102.394 185.352 105.451C185.456 106.446 186.913 106.231 187.724 106.202C192.124 106.042 196.601 105.837 200.849 104.81C202.993 104.505 204.508 101.013 204.526 99.2545C204.55 96.7715 202.213 94.9225 200.515 94.4935C195.596 93.2505 190.569 93.5805 185.193 93.6505M183.919 89.6695C184.221 89.4205 184.324 89.3325 184.43 89.2485C190.797 84.8415 199.961 85.6205 207.574 87.8735C212.965 89.4695 215.709 95.6735 215.398 101.688C215.107 107.319 211.951 111.152 207.054 114.078C209.301 120.362 210.483 123.72 212.841 129.842C214.691 134.647 213.97 138.12 210.493 139.624C207.124 141.082 203.255 139.33 201.605 134.842C199.568 129.298 199.02 126.377 197.483 120.663C196.758 117.972 195.717 116.466 192.557 116.916C190.071 117.27 187.494 116.987 184.533 116.987C184.835 122.517 185.223 127.842 185.381 133.174C185.47 136.189 184.702 138.649 181.699 138.743C179.559 138.811 176.551 139.029 174.46 137.326C173.709 136.713 173.299 133.971 173.254 132.821C172.943 124.885 172.769 117.557 172.928 109.624C173.027 104.666 173.718 99.0895 174.494 94.1635C175.456 88.0565 178.312 86.7055 183.919 89.6695" fill="#fdc623" fill-rule="nonzero" opacity="1" stroke="none" vectornator:layerName="path"/>
<path d="M112.38 209.803L116.13 198.178C121.279 200.029 125.88 200.953 129.93 200.953C132.13 200.953 133.742 200.691 134.768 200.165C135.792 199.641 136.305 198.853 136.305 197.803C136.305 197.104 136.029 196.49 135.48 195.965C134.929 195.441 133.83 194.854 132.18 194.203C130.53 193.554 128.055 192.753 124.755 191.803C120.705 190.603 117.555 188.641 115.305 185.915C113.055 183.191 111.93 180.054 111.93 176.503C111.93 171.003 113.741 166.841 117.367 164.016C120.992 161.192 125.88 159.778 132.03 159.778C135.23 159.778 138.379 160.116 141.48 160.79C144.579 161.465 147.33 162.453 149.73 163.753L145.68 175.078C142.879 174.129 140.442 173.441 138.367 173.016C136.292 172.591 134.28 172.378 132.33 172.378C129.03 172.378 127.38 173.278 127.38 175.078C127.38 175.978 127.917 176.74 128.992 177.365C130.067 177.991 132.279 178.779 135.63 179.728C140.88 181.128 144.855 183.266 147.555 186.141C150.255 189.016 151.605 192.453 151.605 196.453C151.605 202.003 149.805 206.266 146.205 209.241C142.605 212.216 137.28 213.703 130.23 213.703C123.18 213.703 117.23 212.404 112.38 209.803" fill="#fdc623" fill-rule="nonzero" opacity="1" stroke="none" vectornator:layerName="path"/>
<path d="M157.604 201.629L175.229 171.854L158.279 171.854L158.279 160.903L192.029 160.903L192.029 171.854L174.779 201.554L192.779 201.554L192.779 212.504L157.604 212.504L157.604 201.629Z" fill="#fdc623" fill-rule="nonzero" opacity="1" stroke="none" vectornator:layerName="path"/>
<path d="M233.467 196.379C235.492 193.93 236.504 190.704 236.504 186.704C236.504 184.054 236.041 181.691 235.117 179.616C234.192 177.542 232.905 175.917 231.254 174.741C229.605 173.567 227.73 172.979 225.629 172.979C223.578 172.979 221.73 173.567 220.079 174.741C218.43 175.917 217.155 177.542 216.254 179.616C215.355 181.691 214.905 184.054 214.905 186.704C214.905 190.704 215.905 193.93 217.904 196.379C219.904 198.829 222.504 200.054 225.704 200.054C228.855 200.054 231.442 198.829 233.467 196.379M211.342 210.254C207.166 207.954 203.917 204.767 201.592 200.691C199.267 196.616 198.105 191.98 198.105 186.778C198.105 181.528 199.267 176.855 201.592 172.754C203.917 168.654 207.166 165.467 211.342 163.192C215.516 160.917 220.305 159.778 225.704 159.778C231.105 159.778 235.892 160.917 240.067 163.192C244.241 165.467 247.492 168.642 249.817 172.716C252.142 176.792 253.305 181.48 253.305 186.778C253.305 191.98 252.142 196.616 249.817 200.691C247.492 204.767 244.23 207.954 240.029 210.254C235.829 212.553 231.054 213.704 225.704 213.704C220.305 213.704 215.516 212.553 211.342 210.254" fill="#fdc623" fill-rule="nonzero" opacity="1" stroke="none" vectornator:layerName="path"/>
<path d="M317.403 209.803L321.153 198.178C326.302 200.029 330.903 200.953 334.953 200.953C337.153 200.953 338.765 200.691 339.791 200.165C340.815 199.641 341.328 198.853 341.328 197.803C341.328 197.104 341.052 196.49 340.503 195.965C339.952 195.441 338.853 194.854 337.203 194.203C335.553 193.554 333.078 192.753 329.778 191.803C325.728 190.603 322.578 188.641 320.328 185.915C318.078 183.191 316.953 180.054 316.953 176.503C316.953 171.003 318.764 166.841 322.39 164.016C326.015 161.192 330.903 159.778 337.053 159.778C340.253 159.778 343.402 160.116 346.503 160.79C349.602 161.465 352.353 162.453 354.753 163.753L350.703 175.078C347.902 174.129 345.465 173.441 343.39 173.016C341.315 172.591 339.303 172.378 337.353 172.378C334.053 172.378 332.403 173.278 332.403 175.078C332.403 175.978 332.94 176.74 334.015 177.365C335.09 177.991 337.302 178.779 340.653 179.728C345.903 181.128 349.878 183.266 352.578 186.141C355.278 189.016 356.628 192.453 356.628 196.453C356.628 202.003 354.828 206.266 351.228 209.241C347.628 212.216 342.303 213.703 335.253 213.703C328.203 213.703 322.253 212.404 317.403 209.803" fill="#fdc623" fill-rule="nonzero" opacity="1" stroke="none" vectornator:layerName="path"/>
<path d="M411.502 160.903L447.727 160.903L447.727 172.303L429.727 172.303L429.727 181.678L446.152 181.678L446.152 191.129L429.727 191.129L429.727 201.103L447.727 201.103L447.727 212.504L411.502 212.504L411.502 160.903Z" fill="#fdc623" fill-rule="nonzero" opacity="1" stroke="none" vectornator:layerName="path"/>
<path d="M540.89 196.272C542.915 193.823 543.927 190.597 543.927 186.597C543.927 183.947 543.464 181.584 542.54 179.509C541.615 177.435 540.328 175.81 538.677 174.634C537.028 173.46 535.153 172.872 533.052 172.872C531.001 172.872 529.153 173.46 527.502 174.634C525.853 175.81 524.578 177.435 523.677 179.509C522.778 181.584 522.328 183.947 522.328 186.597C522.328 190.597 523.328 193.823 525.327 196.272C527.327 198.722 529.927 199.947 533.127 199.947C536.278 199.947 538.865 198.722 540.89 196.272M518.765 210.147C514.589 207.847 511.34 204.66 509.015 200.584C506.69 196.509 505.528 191.873 505.528 186.671C505.528 181.421 506.69 176.748 509.015 172.647C511.34 168.547 514.589 165.36 518.765 163.085C522.939 160.81 527.728 159.671 533.127 159.671C538.528 159.671 543.315 160.81 547.49 163.085C551.664 165.36 554.915 168.535 557.24 172.609C559.565 176.685 560.728 181.373 560.728 186.671C560.728 191.873 559.565 196.509 557.24 200.584C554.915 204.66 551.653 207.847 547.452 210.147C543.252 212.446 538.477 213.597 533.127 213.597C527.728 213.597 522.939 212.446 518.765 210.147" fill="#fdc623" fill-rule="nonzero" opacity="1" stroke="none" vectornator:layerName="path"/>
<path d="M567.052 160.797L584.452 160.797L584.452 181.872L589.852 181.872L599.827 160.797L617.152 160.797L617.152 164.172L605.302 186.372L618.877 209.023L618.877 212.398L600.652 212.398L589.552 191.922L584.452 191.922L584.452 212.398L567.052 212.398L567.052 160.797Z" fill="#fdc623" fill-rule="nonzero" opacity="1" stroke="none" vectornator:layerName="path"/>
<path d="M270.623 166.885C280.112 155.733 283.806 158.01 288.232 167.487C299.416 155.048 306.064 158.678 308.205 166.977C309.503 172.006 309.561 177.439 309.578 182.693C309.599 188.916 308.901 198.73 308.513 204.951C308.433 206.232 308.282 207.563 307.846 208.755C306.964 211.162 305.128 213.069 302.566 212.48C300.673 212.045 298.369 210.584 297.565 208.937C296.558 206.873 296.719 204.154 296.69 201.713C296.599 193.861 296.758 182.42 296.756 174.566C296.743 174.026 296.217 173.961 295.795 174.346C294.665 175.32 292.844 178.874 292.043 182.074C290.645 188.591 289.828 195.233 288.771 201.823C288.401 204.131 288.67 207.614 287.547 209.472C286.51 211.189 284.123 212.434 282.239 212.456C280.545 212.476 278.557 211.007 277.618 209.358C276.538 207.463 276.873 204.271 276.912 201.972C277.027 195.154 277.46 188.342 277.707 181.525C277.779 179.53 277.748 177.531 277.73 175.037C277.726 174.355 276.901 174.152 276.464 174.676C273.042 178.771 271.444 183.917 270.777 188.913C269.891 195.546 268.573 202.254 267.956 208.924C267.85 210.078 267.82 211.492 267.156 212.282C266.127 213.507 265.304 213.76 263.74 213.76C262.288 213.76 260.325 213.131 259.458 211.698C258.809 210.625 258.964 208.946 259.065 207.558C260.052 193.959 261.079 180.362 262.161 166.769C262.577 160.771 264.876 159.046 267.395 159.23C269.891 159.413 270.433 166.07 270.623 166.885" fill="#fdc623" fill-rule="nonzero" opacity="1" stroke="none" vectornator:layerName="path"/>
<path d="M463.975 172.909C464.689 183.128 464.832 189.721 465.557 200.105C473.84 200.757 478.682 197.646 483.454 193.502C486.956 190.46 489.085 185.481 487.133 180.915C483.805 173.131 479.893 170.274 471.227 170.933C469.048 171.099 466.522 171.735 463.975 172.909M455.749 172.099C455.88 167.535 456.738 163.377 462.217 161.561C468.458 159.493 474.904 159.398 481.391 160.518C486.776 161.447 490.484 163.524 493.745 167.939C504.884 183.022 501.199 199.306 484.559 208.01C481.727 209.492 478.983 211.177 476.051 212.421C471.303 214.434 466.493 215.762 462.734 210.483C462.671 210.395 462.595 210.263 462.51 210.251C455.337 209.463 455.77 202.457 455.765 197.544C455.761 193.126 455.626 176.395 455.749 172.099" fill="#fdc623" fill-rule="nonzero" opacity="1" stroke="none" vectornator:layerName="path"/>
<path d="M424.487 146.496C425.676 141.313 428.868 138.089 432.781 135.923C435.547 134.392 438.242 134.815 440.003 136.816C441.64 138.677 441.943 141.668 439.924 143.812C437.345 146.549 434.395 149.05 431.23 151.066C429.985 151.86 427.233 151.717 426.075 150.824C424.894 149.913 424.238 147.583 424.487 146.496" fill="#fdc623" fill-rule="nonzero" opacity="1" stroke="none" vectornator:layerName="path"/>
<path d="M387.532 170.195C382.453 170.195 377.351 170.35 372.267 170.115C370.366 170.027 368.319 169.332 366.706 168.325C365.877 167.807 365.374 165.881 365.625 164.801C365.826 163.931 367.337 162.848 368.344 162.762C377.078 162.02 385.821 161.251 394.578 160.964C400.311 160.776 402.193 164.22 399.003 168.907C392.444 178.545 385.596 187.985 378.866 197.506C378.378 198.197 377.882 198.883 377.034 200.068C383.711 200.388 389.896 200.653 396.077 200.999C397.944 201.104 399.864 201.204 401.645 201.711C404.549 202.536 406.551 204.442 406.283 207.701C406.006 211.071 403.591 212.445 400.554 212.495C396.547 212.56 392.534 212.265 388.523 212.16C381.001 211.963 373.471 211.913 365.96 211.518C364.123 211.421 361.969 210.642 360.627 209.435C358.569 207.586 358.911 205.155 360.802 203.099C364.483 199.098 368.411 195.3 371.821 191.083C377.099 184.556 382.032 177.749 387.097 171.051C387.376 170.682 387.522 170.214 387.532 170.195" fill="#fdc623" fill-rule="nonzero" opacity="1" stroke="none" vectornator:layerName="path"/>
</g>
</svg>
