<svg id="Layer_1" data-name="Layer 1" xmlns="http://www.w3.org/2000/svg" viewBox="0 0 225.24 23.33"><defs><style>.cls-1{fill:#1d1d1b;}</style></defs><g id="Untitled"><path class="cls-1" d="M10.42,17.94a4.39,4.39,0,0,0,.89-2.85A4.94,4.94,0,0,0,10.9,13a3.49,3.49,0,0,0-1.13-1.44A2.77,2.77,0,0,0,8.11,11a2.74,2.74,0,0,0-1.64.52A3.39,3.39,0,0,0,5.35,13,5.09,5.09,0,0,0,5,15.09a4.39,4.39,0,0,0,.88,2.85A2.84,2.84,0,0,0,8.13,19a2.85,2.85,0,0,0,2.29-1.08M3.9,22A7.19,7.19,0,0,1,1,19.21a8.08,8.08,0,0,1-1-4.1A8.14,8.14,0,0,1,1,11,7.15,7.15,0,0,1,3.9,8.16a8.7,8.7,0,0,1,4.23-1,8.7,8.7,0,0,1,4.23,1A7.25,7.25,0,0,1,15.24,11a8.32,8.32,0,0,1,1,4.15,8.18,8.18,0,0,1-1,4.1A7.24,7.24,0,0,1,12.35,22a8.61,8.61,0,0,1-4.22,1A8.6,8.6,0,0,1,3.9,22"/><path class="cls-1" d="M35.45,22a7.62,7.62,0,0,1-2.85-2.87,8,8,0,0,1-1.05-4,8.14,8.14,0,0,1,1-4.07,7.46,7.46,0,0,1,2.79-2.84,7.78,7.78,0,0,1,4-1,9.76,9.76,0,0,1,2.35.29,6.26,6.26,0,0,1,2,.82L43,11.68a8.26,8.26,0,0,0-2.88-.59,3.51,3.51,0,0,0-2.71,1,4.17,4.17,0,0,0-1,3,4.05,4.05,0,0,0,1,2.93A3.69,3.69,0,0,0,40.3,19a5.85,5.85,0,0,0,1.28-.13A9.57,9.57,0,0,0,43,18.42l.61,3.49A8.15,8.15,0,0,1,39.46,23a7.79,7.79,0,0,1-4-1.05"/><path class="cls-1" d="M45.33,19.48l5.2-8.77h-5V7.48h9.95v3.23l-5.09,8.75H55.7v3.23H45.33Z"/><path class="cls-1" d="M61.13,18.47l-4.37-11h4.61l2.15,6.83,2.1-6.83h4.86l-4.6,11v4.22H61.13Z"/><path class="cls-1" d="M21.65,9.4c0,1.11,0,2.58.05,3.48,0,.29.46.23.7.22a19.91,19.91,0,0,0,3.86-.41c.63-.09,1.08-1.12,1.09-1.64a1.6,1.6,0,0,0-1.19-1.4,17.19,17.19,0,0,0-4.51-.25m-.38-1.17.16-.13C23.3,6.81,26,7,28.24,7.7c1.59.47,2.4,2.3,2.31,4.07a4.42,4.42,0,0,1-2.46,3.65c.66,1.85,1,2.84,1.71,4.64.54,1.42.33,2.44-.7,2.89a2,2,0,0,1-2.61-1.41,40.75,40.75,0,0,1-1.22-4.18c-.21-.79-.52-1.24-1.45-1.1a18.33,18.33,0,0,1-2.36,0c.08,1.63.2,3.19.25,4.77,0,.88-.2,1.61-1.09,1.64a3.15,3.15,0,0,1-2.13-.42,2.73,2.73,0,0,1-.36-1.33C18,18.6,18,16.44,18,14.11a35,35,0,0,1,.46-4.56c.28-1.8,1.12-2.19,2.77-1.32"/><path class="cls-1" d="M168,3.39A4.65,4.65,0,0,1,170.41.27a1.63,1.63,0,0,1,2.13.27,1.52,1.52,0,0,1,0,2.06A13.73,13.73,0,0,1,170,4.73a1.61,1.61,0,0,1-1.52-.07A1.56,1.56,0,0,1,168,3.39"/><path class="cls-1" d="M76,22l1.1-3.43a12.14,12.14,0,0,0,4.07.82,3.33,3.33,0,0,0,1.42-.23.75.75,0,0,0,.46-.7.72.72,0,0,0-.25-.54,3.22,3.22,0,0,0-1-.52c-.48-.19-1.21-.42-2.19-.7A5.59,5.59,0,0,1,76.88,15a4.24,4.24,0,0,1-1-2.77,4.37,4.37,0,0,1,1.6-3.68A6.87,6.87,0,0,1,81.81,7.3a12.94,12.94,0,0,1,2.78.3A9.41,9.41,0,0,1,87,8.47l-1.19,3.34a19.13,19.13,0,0,0-2.16-.61A9.2,9.2,0,0,0,81.9,11c-1,0-1.46.27-1.46.8a.79.79,0,0,0,.47.67,9.72,9.72,0,0,0,2,.7,7.22,7.22,0,0,1,3.51,1.89,4.25,4.25,0,0,1,1.19,3A4.59,4.59,0,0,1,86,21.87a7.22,7.22,0,0,1-4.7,1.32A11.08,11.08,0,0,1,76,22"/><path class="cls-1" d="M89.34,19.63l5.19-8.77h-5V7.63h9.94v3.23L94.4,19.61h5.3v3.22H89.34Z"/><path class="cls-1" d="M111.69,18.08a4.31,4.31,0,0,0,.9-2.85,5.16,5.16,0,0,0-.41-2.09A3.34,3.34,0,0,0,111,11.71a2.77,2.77,0,0,0-1.66-.52,2.71,2.71,0,0,0-1.63.52,3.32,3.32,0,0,0-1.13,1.43,5.33,5.33,0,0,0-.4,2.09,4.36,4.36,0,0,0,.89,2.85,3,3,0,0,0,4.58,0m-6.52,4.09a7.34,7.34,0,0,1-2.87-2.82,8.16,8.16,0,0,1-1-4.1,8.3,8.3,0,0,1,1-4.13,7.25,7.25,0,0,1,2.87-2.81,9.38,9.38,0,0,1,8.47,0,7.23,7.23,0,0,1,2.87,2.8,8.26,8.26,0,0,1,1,4.14,8.16,8.16,0,0,1-1,4.1,7.37,7.37,0,0,1-2.88,2.82,9.28,9.28,0,0,1-8.46,0"/><path class="cls-1" d="M136.42,22l1.11-3.43a12,12,0,0,0,4.06.82A3.41,3.41,0,0,0,143,19.2a.75.75,0,0,0,.45-.7.75.75,0,0,0-.24-.54,3.45,3.45,0,0,0-1-.52c-.48-.19-1.21-.42-2.18-.7A5.62,5.62,0,0,1,137.28,15a4.24,4.24,0,0,1-1-2.77,4.37,4.37,0,0,1,1.6-3.68,6.87,6.87,0,0,1,4.32-1.25,12.94,12.94,0,0,1,2.78.3,9.14,9.14,0,0,1,2.43.87l-1.19,3.34a19,19,0,0,0-2.15-.61A9.3,9.3,0,0,0,142.3,11c-1,0-1.46.27-1.46.8a.79.79,0,0,0,.48.67,9.31,9.31,0,0,0,2,.7,7.17,7.17,0,0,1,3.51,1.89,4.26,4.26,0,0,1,1.2,3,4.59,4.59,0,0,1-1.59,3.76,7.23,7.23,0,0,1-4.71,1.32A11.08,11.08,0,0,1,136.42,22"/><path class="cls-1" d="M164.14,7.63h10.68V11h-5.31v2.76h4.84v2.79h-4.84v2.94h5.31v3.35H164.14Z"/><path class="cls-1" d="M202.26,18.05a4.31,4.31,0,0,0,.9-2.85,5.13,5.13,0,0,0-.41-2.09,3.34,3.34,0,0,0-1.14-1.43,2.86,2.86,0,0,0-3.29,0,3.32,3.32,0,0,0-1.13,1.43,5.3,5.3,0,0,0-.4,2.09,4.36,4.36,0,0,0,.89,2.85,3,3,0,0,0,4.58,0m-6.52,4.09a7.34,7.34,0,0,1-2.87-2.82,8.15,8.15,0,0,1-1-4.1,8.29,8.29,0,0,1,1-4.13,7.21,7.21,0,0,1,2.87-2.82,9.47,9.47,0,0,1,8.47,0,7.19,7.19,0,0,1,2.87,2.81,8.15,8.15,0,0,1,1,4.14,8.06,8.06,0,0,1-1,4.1,7.3,7.3,0,0,1-2.88,2.82,9.28,9.28,0,0,1-8.46,0"/><path class="cls-1" d="M210,7.6h5.13v6.21h1.59l2.94-6.21h5.1v1l-3.49,6.55,4,6.67v1h-5.37l-3.27-6h-1.5v6H210Z"/><path class="cls-1" d="M122.64,9.39c2.79-3.28,3.88-2.61,5.19.18,3.29-3.66,5.25-2.59,5.88-.15a19.29,19.29,0,0,1,.41,4.63c0,1.83-.2,4.73-.32,6.56a4.17,4.17,0,0,1-.19,1.12c-.26.71-.81,1.27-1.56,1.1a2.33,2.33,0,0,1-1.47-1,5.15,5.15,0,0,1-.26-2.13c0-2.31,0-5.68,0-8,0-.16-.16-.18-.29-.07a5.79,5.79,0,0,0-1.1,2.28c-.41,1.92-.65,3.88-1,5.82a7,7,0,0,1-.37,2.25,2,2,0,0,1-1.56.88,1.78,1.78,0,0,1-1.36-.91,4.76,4.76,0,0,1-.21-2.18c0-2,.16-4,.24-6,0-.59,0-1.18,0-1.91a.2.2,0,0,0-.37-.11,8.16,8.16,0,0,0-1.68,4.19c-.26,2-.65,3.93-.83,5.9a1.93,1.93,0,0,1-.23,1,1.1,1.1,0,0,1-1,.43,1.51,1.51,0,0,1-1.26-.6,2.24,2.24,0,0,1-.12-1.22q.43-6,.92-12c.12-1.77.8-2.28,1.54-2.22s.89,2,1,2.25"/><path class="cls-1" d="M179.6,11.17c.21,3,.26,5,.47,8a6.54,6.54,0,0,0,5.27-1.94,3.32,3.32,0,0,0,1.09-3.71c-1-2.3-2.14-3.14-4.69-2.94a6.31,6.31,0,0,0-2.14.58m-2.42-.24c0-1.34.29-2.57,1.91-3.1a11.46,11.46,0,0,1,5.64-.31,5.2,5.2,0,0,1,3.64,2.18c3.29,4.45,2.2,9.25-2.7,11.81-.84.44-1.65.93-2.51,1.3-1.4.59-2.82,1-3.92-.57,0,0,0-.07-.07-.07-2.11-.23-2-2.3-2-3.74s0-6.23,0-7.5"/><path class="cls-1" d="M157.08,10.37c-1.49,0-3,0-4.5,0A3.61,3.61,0,0,1,151,9.82a1.15,1.15,0,0,1-.32-1,1.05,1.05,0,0,1,.8-.6c2.57-.22,5.15-.45,7.73-.53,1.69-.06,2.24,1,1.3,2.34-1.93,2.84-4,5.62-5.93,8.43l-.54.75c2,.09,3.79.17,5.61.27a8.09,8.09,0,0,1,1.64.21,1.64,1.64,0,0,1,1.37,1.77,1.51,1.51,0,0,1-1.69,1.41c-1.18,0-2.36-.07-3.55-.1-2.21-.06-4.43-.07-6.64-.19a2.68,2.68,0,0,1-1.57-.61,1.22,1.22,0,0,1,.05-1.87c1.08-1.18,2.24-2.29,3.24-3.54,1.56-1.92,3-3.93,4.5-5.9a.79.79,0,0,0,.13-.25"/></g></svg>